<svg width="150" height="150" viewBox="0 0 150 150" fill="none" xmlns="http://www.w3.org/2000/svg">
<path fill-rule="evenodd" clip-rule="evenodd" d="M79.997 6.32502C78.4769 5.4504 76.7538 4.99009 75 4.99009C73.2462 4.99009 71.5231 5.4504 70.003 6.32502L17.003 36.831C16.1094 37.3451 15.3008 37.9945 14.606 38.756L36.823 51.486C37.366 50.9005 37.9936 50.3996 38.685 50L70.995 31.315C72.2123 30.611 73.5938 30.2403 75 30.2403C76.4062 30.2403 77.7877 30.611 79.005 31.315L111.315 50C112.007 50.3993 112.634 50.9002 113.177 51.486L135.394 38.756C134.699 37.9945 133.891 37.3452 132.997 36.831L79.997 6.32502ZM137.444 42.191L115.077 55.009C115.23 55.629 115.31 56.272 115.31 56.926V92.513C115.31 93.901 114.949 95.2651 114.263 96.4714C113.576 97.6776 112.587 98.6845 111.394 99.393L78.924 118.671C78.3214 119.029 77.6746 119.306 77 119.495V144.756C78.005 144.525 78.9683 144.141 79.856 143.616L133.096 112.154C134.589 111.273 135.827 110.018 136.687 108.512C137.547 107.007 138 105.303 138 103.569V45.473C138 44.3556 137.812 43.246 137.444 42.191ZM12 45.473C12 44.339 12.193 43.231 12.556 42.191L34.923 55.009C34.7682 55.6363 34.6899 56.2799 34.69 56.926V94.192C34.69 95.6271 35.076 97.0357 35.8076 98.2702C36.5391 99.5048 37.5893 100.52 38.848 101.209L70.998 118.809C71.636 119.159 72.31 119.415 73 119.578V144.854C71.9378 144.664 70.9133 144.305 69.966 143.788L17.206 115.039C15.6314 114.182 14.3169 112.917 13.4007 111.376C12.4846 109.835 12.0007 108.076 12 106.283V45.473ZM68.004 2.86902C70.1322 1.64448 72.5446 1 75 1C77.4554 1 79.8678 1.64448 81.996 2.86902L134.996 33.376C137.124 34.599 138.891 36.3611 140.121 38.4849C141.351 40.6086 141.999 43.019 142 45.473V103.569C142 108.504 139.39 113.072 135.135 115.587L81.895 147.049C79.8052 148.284 77.4307 148.955 75.0038 148.997C72.5769 149.039 70.1805 148.451 68.049 147.29L15.289 118.541C13.0844 117.342 11.2438 115.57 9.96108 113.413C8.67835 111.256 8.00089 108.793 8 106.283L8 45.473C8 40.482 10.67 35.869 15.004 33.375L68.004 2.86802V2.86902ZM50.796 57.973L71.96 45.755C72.8847 45.2217 73.9335 44.941 75.001 44.941C76.0685 44.941 77.1173 45.2217 78.042 45.755L99.205 57.973C100.117 58.4975 100.875 59.2529 101.403 60.1633C101.93 61.0737 102.209 62.1069 102.21 63.159V86.466C102.208 87.5064 101.936 88.5284 101.419 89.4314C100.903 90.3344 100.16 91.0873 99.264 91.616L77.98 104.234C77.0721 104.772 76.04 105.064 74.9849 105.083C73.9298 105.101 72.8881 104.845 71.962 104.339L50.921 92.839C49.9753 92.3248 49.1856 91.5653 48.6349 90.6405C48.0841 89.7156 47.7926 88.6595 47.791 87.583V63.159C47.7926 62.1068 48.0712 61.0735 48.5989 60.1631C49.1266 59.2527 49.8837 58.4974 50.796 57.973Z" fill="#65558F"/>
</svg>
